# xmcd
#
# Track frame offsets:
#	150
#	17976
#	28781
#	47644
#	62247
#	80347
#	94526
#	116483
#	131578
#	146423
#	155042
#	171467
#	184142
#	199665
#	218640
#	248528
#	261428
#	272222
#
# Disc length: 3977 seconds
#
# Revision: 0
# Processed by: cddbd v1.5.1PL0 Copyright (c) Steve Scherf et al.
# Submitted via: dBpowerAMP V4.0
#
DISCID=060f8712
DTITLE=Isaiah Owens - You Without Sin Cast The First Stone
DYEAR=2004
DGENRE=Blues
TTITLE0=You Without Sin
TTITLE1=Jesus Will Provide
TTITLE2=I'll Fly Away
TTITLE3=If It Wasn't For The Lord
TTITLE4=Slip In and Tip In
TTITLE5=Prayer Wheel
TTITLE6=I've Been Down To The Water
TTITLE7=Everything Will Be Alright
TTITLE8=Yes Jesus Loves Me
TTITLE9=Cheerful Angels Commercial
TTITLE10=I Wonder Do You Know
TTITLE11=Wake Me, Shake Me
TTITLE12=Nobody's Fault But Mine
TTITLE13=Heaven Must Be A Beautiful Place
TTITLE14=God Bless Our Love
TTITLE15=I've Decided That Jesus Is My Choice
TTITLE16=He Is Real In My Soul
TTITLE17=If I've Done Anything Wrong
EXTD=
EXTT0=
EXTT1=
EXTT2=
EXTT3=
EXTT4=
EXTT5=
EXTT6=
EXTT7=
EXTT8=
EXTT9=
EXTT10=
EXTT11=
EXTT12=
EXTT13=
EXTT14=
EXTT15=
EXTT16=
EXTT17=
PLAYORDER=
